<?xml version="1.0" standalone="no"?>
<!DOCTYPE svg PUBLIC "-//W3C//DTD SVG 20010904//EN"
 "http://www.w3.org/TR/2001/REC-SVG-20010904/DTD/svg10.dtd">
<svg version="1.0" xmlns="http://www.w3.org/2000/svg"
 width="1816.000000pt" height="1816.000000pt" viewBox="0 0 1816.000000 1816.000000"
 preserveAspectRatio="xMidYMid meet">
<metadata>
Created by potrace 1.14, written by Peter Selinger 2001-2017
</metadata>
<g transform="translate(0.000000,1816.000000) scale(0.100000,-0.100000)"
fill="#000000" stroke="none">
<path d="M6445 14620 c-185 -29 -318 -71 -471 -150 -204 -103 -386 -257 -512
-430 -34 -47 -67 -90 -72 -97 -6 -7 -10 -14 -10 -17 0 -3 -13 -27 -28 -53 -64
-111 -138 -316 -158 -437 -3 -21 -9 -48 -12 -60 -4 -11 -7 -484 -8 -1051 -1
-942 -13 -2671 -19 -2840 -1 -38 -5 -257 -9 -485 -4 -228 -9 -444 -11 -480 -2
-36 -6 -198 -10 -360 -3 -162 -8 -322 -10 -355 -2 -33 -7 -172 -10 -310 -3
-137 -8 -277 -10 -310 -2 -33 -7 -152 -10 -265 -3 -113 -8 -234 -10 -270 -2
-36 -7 -148 -10 -250 -3 -102 -8 -210 -10 -240 -2 -30 -7 -136 -10 -235 -4
-99 -8 -191 -10 -205 -5 -34 -19 -410 -18 -485 0 -66 10 -196 18 -235 3 -14
10 -50 15 -80 80 -406 386 -802 771 -995 125 -63 285 -118 379 -131 25 -3 48
-8 52 -10 14 -9 137 -17 253 -17 225 1 436 53 646 159 301 151 551 417 681
724 20 47 46 116 57 154 20 66 25 84 36 144 3 15 8 33 10 40 13 37 16 339 20
1932 3 960 7 1783 9 1830 2 47 5 130 6 185 l1 100 24 -30 c14 -16 86 -113 160
-215 74 -102 176 -241 226 -310 461 -629 1249 -1754 1758 -2507 268 -397 291
-428 402 -544 151 -157 377 -297 589 -363 163 -52 267 -68 450 -70 389 -4 752
145 1039 424 90 89 156 180 523 730 447 668 912 1361 1133 1690 415 617 611
907 634 942 13 21 28 38 31 38 4 0 8 -32 9 -72 1 -39 4 -74 5 -77 2 -3 7 -60
10 -126 4 -66 11 -169 16 -230 5 -60 12 -150 15 -200 3 -49 7 -115 10 -145 2
-30 7 -93 10 -140 3 -47 8 -110 10 -140 2 -30 7 -91 10 -135 3 -44 8 -109 10
-145 3 -36 12 -164 20 -285 8 -121 17 -245 20 -275 2 -30 7 -95 10 -145 3 -49
8 -117 10 -150 3 -33 14 -193 25 -355 11 -162 22 -320 25 -350 2 -30 7 -93 10
-140 45 -704 56 -824 86 -959 96 -421 354 -759 742 -975 117 -64 318 -132 448
-150 25 -4 59 -9 75 -12 45 -8 231 -9 317 -1 202 19 427 94 612 205 114 68
265 194 340 284 64 76 95 118 95 126 0 6 4 12 9 14 12 4 93 141 124 210 60
134 108 293 122 407 4 30 9 63 11 75 9 45 4 260 -11 446 -8 107 -17 227 -20
265 -3 39 -8 95 -10 125 -9 117 -16 204 -35 460 -11 146 -22 292 -24 325 -3
33 -8 96 -11 140 -3 44 -8 105 -10 135 -3 30 -7 91 -10 135 -3 44 -10 132 -15
195 -5 63 -12 151 -15 195 -3 44 -7 105 -10 135 -2 30 -7 91 -10 135 -3 44 -7
105 -10 135 -2 30 -7 91 -10 135 -3 44 -8 107 -10 140 -3 33 -10 125 -15 205
-6 80 -13 172 -15 205 -3 33 -14 186 -25 340 -11 154 -22 303 -25 330 -2 28
-7 95 -10 150 -3 55 -8 116 -10 135 -2 19 -7 78 -10 130 -3 52 -8 120 -10 150
-9 112 -22 288 -35 480 -6 80 -13 177 -15 215 -3 39 -8 100 -10 138 -13 173
-16 216 -20 267 -2 30 -7 98 -10 150 -3 52 -8 115 -10 140 -2 25 -7 88 -10
140 -3 52 -8 115 -10 140 -2 25 -7 92 -10 150 -3 58 -8 121 -10 140 -2 19 -6
80 -10 135 -3 55 -7 125 -10 155 -2 30 -7 89 -10 130 -2 41 -9 140 -15 220 -6
80 -12 183 -15 230 -3 47 -8 110 -10 140 -3 30 -7 91 -10 135 -3 44 -8 109
-10 145 -3 36 -7 101 -10 145 -17 252 -28 329 -70 477 -111 390 -404 734 -773
909 -80 38 -229 92 -282 103 -14 2 -50 10 -80 16 -167 33 -380 33 -545 1 -83
-17 -208 -51 -239 -67 -16 -8 -33 -14 -38 -14 -5 0 -50 -21 -100 -46 -212
-106 -376 -241 -522 -431 -29 -37 -323 -473 -654 -968 -736 -1104 -1211 -1810
-1936 -2880 -684 -1010 -839 -1236 -846 -1228 -63 72 -1016 1334 -1361 1803
-477 648 -1082 1496 -1481 2075 -251 364 -305 442 -371 540 -523 769 -523 769
-663 894 -95 85 -203 158 -316 214 -87 44 -236 101 -289 111 -13 2 -31 7 -39
10 -8 3 -31 7 -50 10 -19 3 -46 8 -60 12 -39 10 -359 13 -415 4z"/>
<path d="M1378 14495 c-2 -1 -30 -5 -63 -9 -69 -7 -122 -14 -150 -20 -629
-141 -1080 -647 -1154 -1296 -11 -91 -8 -8310 2 -8360 7 -32 20 -98 32 -159
19 -103 170 -451 195 -451 6 0 10 -5 10 -10 0 -37 204 -264 305 -341 17 -13
32 -26 35 -29 12 -14 172 -111 235 -142 119 -60 306 -120 416 -133 24 -3 55
-7 69 -10 33 -7 288 -7 320 0 14 3 48 7 75 11 74 8 199 41 296 79 380 146 680
443 835 824 23 58 45 117 48 131 3 14 14 64 25 112 11 49 23 121 27 160 10 95
11 8140 2 8278 -55 759 -672 1348 -1429 1365 -71 1 -130 1 -131 0z"/>
</g>
</svg>
